<?xml version="1.0" encoding="UTF-8"?>
<svg id="Layer_2" data-name="Layer 2" xmlns="http://www.w3.org/2000/svg" viewBox="0 0 1171.4 1353.48">
  <defs>
    <style>
      .cls-1 {
        fill: #009245;
      }

      .cls-2 {
        fill: #8cc63f;
      }

      .cls-3 {
        fill: #006837;
      }

      .cls-4 {
        fill: #39b54a;
      }
    </style>
  </defs>
  <g id="Layer_1-2" data-name="Layer 1">
    <g>
      <rect class="cls-3" x="1115.62" y="651.67" width="55.78" height="50.13"/>
      <rect class="cls-3" x="1115.62" y="601.55" width="55.78" height="50.12"/>
      <rect class="cls-3" x="1115.62" y="401.03" width="55.78" height="50.13"/>
      <rect class="cls-3" x="1115.62" y="350.9" width="55.78" height="50.13"/>
      <rect class="cls-3" x="1059.84" y="701.8" width="55.78" height="50.14"/>
      <rect class="cls-1" x="1059.84" y="651.67" width="55.78" height="50.13"/>
      <rect class="cls-1" x="1059.84" y="601.55" width="55.78" height="50.12"/>
      <rect class="cls-3" x="1059.84" y="551.42" width="55.78" height="50.13"/>
      <rect class="cls-3" x="1059.84" y="451.16" width="55.78" height="50.13"/>
      <rect class="cls-1" x="1059.84" y="401.03" width="55.78" height="50.13"/>
      <rect class="cls-1" x="1059.84" y="350.9" width="55.78" height="50.13"/>
      <rect class="cls-3" x="1059.84" y="300.77" width="55.78" height="50.13"/>
      <rect class="cls-3" x="1004.05" y="751.94" width="55.79" height="50.13"/>
      <rect class="cls-1" x="1004.05" y="701.8" width="55.79" height="50.14"/>
      <rect class="cls-4" x="1004.05" y="651.67" width="55.79" height="50.13"/>
      <rect class="cls-4" x="1004.05" y="601.55" width="55.79" height="50.12"/>
      <rect class="cls-1" x="1004.05" y="551.42" width="55.79" height="50.13"/>
      <rect class="cls-3" x="1004.05" y="501.29" width="55.79" height="50.13"/>
      <rect class="cls-1" x="1004.05" y="451.16" width="55.79" height="50.13"/>
      <rect class="cls-4" x="1004.05" y="401.03" width="55.79" height="50.13"/>
      <rect class="cls-4" x="1004.05" y="350.9" width="55.79" height="50.13"/>
      <rect class="cls-1" x="1004.05" y="300.77" width="55.79" height="50.13"/>
      <rect class="cls-3" x="1004.05" y="250.64" width="55.79" height="50.13"/>
      <rect class="cls-3" x="948.27" y="751.94" width="55.78" height="50.13"/>
      <rect class="cls-1" x="948.27" y="701.8" width="55.78" height="50.14"/>
      <rect class="cls-4" x="948.27" y="651.67" width="55.78" height="50.13"/>
      <rect class="cls-2" x="948.27" y="601.55" width="55.78" height="50.12"/>
      <rect class="cls-4" x="948.27" y="551.42" width="55.78" height="50.13"/>
      <rect class="cls-1" x="948.27" y="501.29" width="55.78" height="50.13"/>
      <rect class="cls-4" x="948.27" y="451.16" width="55.78" height="50.13"/>
      <rect class="cls-2" x="948.27" y="401.03" width="55.78" height="50.13"/>
      <rect class="cls-4" x="948.27" y="350.9" width="55.78" height="50.13"/>
      <rect class="cls-1" x="948.27" y="300.77" width="55.78" height="50.13"/>
      <rect class="cls-3" x="948.27" y="250.64" width="55.78" height="50.13"/>
      <rect class="cls-3" x="892.49" y="751.94" width="55.78" height="50.13"/>
      <rect class="cls-1" x="892.49" y="701.8" width="55.78" height="50.14"/>
      <rect class="cls-4" x="892.49" y="651.67" width="55.78" height="50.13"/>
      <rect class="cls-2" x="892.49" y="601.55" width="55.78" height="50.12"/>
      <rect class="cls-2" x="892.49" y="551.42" width="55.78" height="50.13"/>
      <rect class="cls-4" x="892.49" y="501.29" width="55.78" height="50.13"/>
      <rect class="cls-2" x="892.49" y="451.16" width="55.78" height="50.13"/>
      <rect class="cls-2" x="892.49" y="401.03" width="55.78" height="50.13"/>
      <rect class="cls-4" x="892.49" y="350.9" width="55.78" height="50.13"/>
      <rect class="cls-1" x="892.49" y="300.77" width="55.78" height="50.13"/>
      <rect class="cls-3" x="892.49" y="250.64" width="55.78" height="50.13"/>
      <rect class="cls-3" x="836.71" y="902.32" width="55.78" height="50.13"/>
      <rect class="cls-3" x="836.71" y="852.19" width="55.78" height="50.13"/>
      <rect class="cls-3" x="836.71" y="802.07" width="55.78" height="50.12"/>
      <rect class="cls-3" x="836.71" y="701.8" width="55.78" height="50.14"/>
      <rect class="cls-1" x="836.71" y="651.67" width="55.78" height="50.13"/>
      <rect class="cls-4" x="836.71" y="601.55" width="55.78" height="50.12"/>
      <rect class="cls-2" x="836.71" y="551.42" width="55.78" height="50.13"/>
      <rect class="cls-2" x="836.71" y="501.29" width="55.78" height="50.13"/>
      <rect class="cls-2" x="836.71" y="451.16" width="55.78" height="50.13"/>
      <rect class="cls-4" x="836.71" y="401.03" width="55.78" height="50.13"/>
      <rect class="cls-1" x="836.71" y="350.9" width="55.78" height="50.13"/>
      <rect class="cls-3" x="836.71" y="300.77" width="55.78" height="50.13"/>
      <rect class="cls-3" x="836.71" y="200.51" width="55.78" height="50.13"/>
      <rect class="cls-3" x="836.71" y="150.38" width="55.78" height="50.13"/>
      <rect class="cls-3" x="836.71" y="100.26" width="55.78" height="50.12"/>
      <rect class="cls-1" x="780.93" y="1303.36" width="55.78" height="50.12"/>
      <rect class="cls-3" x="780.93" y="1253.23" width="55.78" height="50.13"/>
      <rect class="cls-3" x="780.93" y="952.45" width="55.78" height="50.13"/>
      <rect class="cls-1" x="780.93" y="902.32" width="55.78" height="50.13"/>
      <rect class="cls-1" x="780.93" y="852.19" width="55.78" height="50.13"/>
      <rect class="cls-1" x="780.93" y="802.07" width="55.78" height="50.12"/>
      <rect class="cls-3" x="780.93" y="751.94" width="55.78" height="50.13"/>
      <rect class="cls-3" x="780.93" y="651.67" width="55.78" height="50.13"/>
      <rect class="cls-1" x="780.93" y="601.55" width="55.78" height="50.12"/>
      <rect class="cls-4" x="780.93" y="551.42" width="55.78" height="50.13"/>
      <rect class="cls-2" x="780.93" y="501.29" width="55.78" height="50.13"/>
      <rect class="cls-4" x="780.93" y="451.16" width="55.78" height="50.13"/>
      <rect class="cls-1" x="780.93" y="401.03" width="55.78" height="50.13"/>
      <rect class="cls-3" x="780.93" y="350.9" width="55.78" height="50.13"/>
      <rect class="cls-3" x="780.93" y="250.64" width="55.78" height="50.13"/>
      <rect class="cls-1" x="780.93" y="200.51" width="55.78" height="50.13"/>
      <rect class="cls-1" x="780.93" y="150.38" width="55.78" height="50.13"/>
      <rect class="cls-1" x="780.93" y="100.26" width="55.78" height="50.12"/>
      <rect class="cls-3" x="780.93" y="50.13" width="55.78" height="50.13"/>
      <rect class="cls-1" x="725.15" y="1303.36" width="55.78" height="50.12"/>
      <rect class="cls-1" x="725.15" y="1253.23" width="55.78" height="50.13"/>
      <rect class="cls-3" x="725.15" y="1203.1" width="55.78" height="50.13"/>
      <rect class="cls-3" x="725.15" y="1002.58" width="55.78" height="50.13"/>
      <rect class="cls-1" x="725.15" y="952.45" width="55.78" height="50.13"/>
      <rect class="cls-4" x="725.15" y="902.32" width="55.78" height="50.13"/>
      <rect class="cls-4" x="725.15" y="852.19" width="55.78" height="50.13"/>
      <rect class="cls-4" x="725.15" y="802.07" width="55.78" height="50.12"/>
      <rect class="cls-1" x="725.15" y="751.94" width="55.78" height="50.13"/>
      <rect class="cls-3" x="725.15" y="701.8" width="55.78" height="50.14"/>
      <rect class="cls-3" x="725.15" y="601.55" width="55.78" height="50.12"/>
      <rect class="cls-1" x="725.15" y="551.42" width="55.78" height="50.13"/>
      <rect class="cls-4" x="725.15" y="501.29" width="55.78" height="50.13"/>
      <rect class="cls-1" x="725.15" y="451.16" width="55.78" height="50.13"/>
      <rect class="cls-3" x="725.15" y="401.03" width="55.78" height="50.13"/>
      <rect class="cls-3" x="725.15" y="300.77" width="55.78" height="50.13"/>
      <rect class="cls-1" x="725.15" y="250.64" width="55.78" height="50.13"/>
      <rect class="cls-4" x="725.15" y="200.51" width="55.78" height="50.13"/>
      <rect class="cls-4" x="725.15" y="150.38" width="55.78" height="50.13"/>
      <rect class="cls-4" x="725.15" y="100.26" width="55.78" height="50.12"/>
      <rect class="cls-1" x="725.15" y="50.13" width="55.78" height="50.13"/>
      <rect class="cls-3" x="725.15" width="55.78" height="50.13"/>
      <rect class="cls-1" x="669.37" y="1253.23" width="55.78" height="50.13"/>
      <rect class="cls-1" x="669.37" y="1203.1" width="55.78" height="50.13"/>
      <rect class="cls-3" x="669.37" y="1152.97" width="55.78" height="50.13"/>
      <rect class="cls-3" x="669.37" y="1002.58" width="55.78" height="50.13"/>
      <rect class="cls-1" x="669.37" y="952.45" width="55.78" height="50.13"/>
      <rect class="cls-4" x="669.37" y="902.32" width="55.78" height="50.13"/>
      <rect class="cls-2" x="669.37" y="852.19" width="55.78" height="50.13"/>
      <rect class="cls-2" x="669.37" y="802.07" width="55.78" height="50.12"/>
      <rect class="cls-4" x="669.37" y="751.94" width="55.78" height="50.13"/>
      <rect class="cls-1" x="669.37" y="701.8" width="55.78" height="50.14"/>
      <rect class="cls-3" x="669.37" y="651.67" width="55.78" height="50.13"/>
      <rect class="cls-3" x="669.37" y="551.42" width="55.78" height="50.13"/>
      <rect class="cls-1" x="669.37" y="501.29" width="55.78" height="50.13"/>
      <rect class="cls-3" x="669.37" y="451.16" width="55.78" height="50.13"/>
      <rect class="cls-3" x="669.37" y="350.9" width="55.78" height="50.13"/>
      <rect class="cls-1" x="669.37" y="300.77" width="55.78" height="50.13"/>
      <rect class="cls-4" x="669.37" y="250.64" width="55.78" height="50.13"/>
      <rect class="cls-2" x="669.37" y="200.51" width="55.78" height="50.13"/>
      <rect class="cls-2" x="669.37" y="150.38" width="55.78" height="50.13"/>
      <rect class="cls-4" x="669.37" y="100.26" width="55.78" height="50.12"/>
      <rect class="cls-1" x="669.37" y="50.13" width="55.78" height="50.13"/>
      <rect class="cls-3" x="669.37" width="55.78" height="50.13"/>
      <rect class="cls-1" x="613.59" y="1203.1" width="55.78" height="50.13"/>
      <rect class="cls-1" x="613.59" y="1152.97" width="55.78" height="50.13"/>
      <rect class="cls-3" x="613.59" y="1102.84" width="55.78" height="50.13"/>
      <rect class="cls-3" x="613.59" y="1052.71" width="55.78" height="50.13"/>
      <rect class="cls-3" x="613.59" y="1002.58" width="55.78" height="50.13"/>
      <rect class="cls-3" x="613.59" y="952.45" width="55.78" height="50.13"/>
      <rect class="cls-1" x="613.59" y="902.32" width="55.78" height="50.13"/>
      <rect class="cls-4" x="613.59" y="852.19" width="55.78" height="50.13"/>
      <rect class="cls-2" x="613.59" y="802.07" width="55.78" height="50.12"/>
      <rect class="cls-2" x="613.59" y="751.94" width="55.78" height="50.13"/>
      <rect class="cls-4" x="613.59" y="701.8" width="55.78" height="50.14"/>
      <rect class="cls-1" x="613.59" y="651.67" width="55.78" height="50.13"/>
      <rect class="cls-3" x="613.59" y="601.55" width="55.78" height="50.12"/>
      <rect class="cls-3" x="613.59" y="501.29" width="55.78" height="50.13"/>
      <rect class="cls-3" x="613.59" y="401.03" width="55.78" height="50.13"/>
      <rect class="cls-1" x="613.59" y="350.9" width="55.78" height="50.13"/>
      <rect class="cls-4" x="613.59" y="300.77" width="55.78" height="50.13"/>
      <rect class="cls-2" x="613.59" y="250.64" width="55.78" height="50.13"/>
      <rect class="cls-2" x="613.59" y="200.51" width="55.78" height="50.13"/>
      <rect class="cls-4" x="613.59" y="150.38" width="55.78" height="50.13"/>
      <rect class="cls-1" x="613.59" y="100.26" width="55.78" height="50.12"/>
      <rect class="cls-3" x="613.59" y="50.13" width="55.78" height="50.13"/>
      <rect class="cls-1" x="557.81" y="1152.97" width="55.78" height="50.13"/>
      <rect class="cls-1" x="557.81" y="1102.84" width="55.78" height="50.13"/>
      <rect class="cls-1" x="557.81" y="1052.71" width="55.78" height="50.13"/>
      <rect class="cls-1" x="557.81" y="1002.58" width="55.78" height="50.13"/>
      <rect class="cls-1" x="557.81" y="952.45" width="55.78" height="50.13"/>
      <rect class="cls-3" x="557.81" y="902.32" width="55.78" height="50.13"/>
      <rect class="cls-1" x="557.81" y="852.19" width="55.78" height="50.13"/>
      <rect class="cls-4" x="557.81" y="802.07" width="55.78" height="50.12"/>
      <rect class="cls-2" x="557.81" y="751.94" width="55.78" height="50.13"/>
      <rect class="cls-2" x="557.81" y="701.8" width="55.78" height="50.14"/>
      <rect class="cls-4" x="557.81" y="651.67" width="55.78" height="50.13"/>
      <rect class="cls-1" x="557.81" y="601.55" width="55.78" height="50.12"/>
      <rect class="cls-3" x="557.81" y="551.42" width="55.78" height="50.13"/>
      <rect class="cls-3" x="557.81" y="501.29" width="55.78" height="50.13"/>
      <rect class="cls-3" x="557.81" y="451.16" width="55.78" height="50.13"/>
      <rect class="cls-1" x="557.81" y="401.03" width="55.78" height="50.13"/>
      <rect class="cls-4" x="557.81" y="350.9" width="55.78" height="50.13"/>
      <rect class="cls-2" x="557.81" y="300.77" width="55.78" height="50.13"/>
      <rect class="cls-2" x="557.81" y="250.64" width="55.78" height="50.13"/>
      <rect class="cls-4" x="557.81" y="200.51" width="55.78" height="50.13"/>
      <rect class="cls-1" x="557.81" y="150.38" width="55.78" height="50.13"/>
      <rect class="cls-3" x="557.81" y="100.26" width="55.78" height="50.12"/>
      <rect class="cls-3" x="502.03" y="952.45" width="55.78" height="50.13"/>
      <rect class="cls-1" x="502.03" y="902.32" width="55.78" height="50.13"/>
      <rect class="cls-4" x="502.03" y="852.19" width="55.78" height="50.13"/>
      <rect class="cls-2" x="502.03" y="802.07" width="55.78" height="50.12"/>
      <rect class="cls-2" x="502.03" y="751.94" width="55.78" height="50.13"/>
      <rect class="cls-4" x="502.03" y="701.8" width="55.78" height="50.14"/>
      <rect class="cls-1" x="502.03" y="651.67" width="55.78" height="50.13"/>
      <rect class="cls-3" x="502.03" y="601.55" width="55.78" height="50.12"/>
      <rect class="cls-3" x="502.03" y="501.29" width="55.78" height="50.13"/>
      <rect class="cls-3" x="502.03" y="401.03" width="55.78" height="50.13"/>
      <rect class="cls-1" x="502.03" y="350.9" width="55.78" height="50.13"/>
      <rect class="cls-4" x="502.03" y="300.77" width="55.78" height="50.13"/>
      <rect class="cls-2" x="502.03" y="250.64" width="55.78" height="50.13"/>
      <rect class="cls-2" x="502.03" y="200.51" width="55.78" height="50.13"/>
      <rect class="cls-4" x="502.03" y="150.38" width="55.78" height="50.13"/>
      <rect class="cls-1" x="502.03" y="100.26" width="55.78" height="50.12"/>
      <rect class="cls-3" x="502.03" y="50.13" width="55.78" height="50.13"/>
      <rect class="cls-3" x="446.25" y="1002.58" width="55.78" height="50.13"/>
      <rect class="cls-1" x="446.25" y="952.45" width="55.78" height="50.13"/>
      <rect class="cls-4" x="446.25" y="902.32" width="55.78" height="50.13"/>
      <rect class="cls-2" x="446.25" y="852.19" width="55.78" height="50.13"/>
      <rect class="cls-2" x="446.25" y="802.07" width="55.78" height="50.12"/>
      <rect class="cls-4" x="446.25" y="751.94" width="55.78" height="50.13"/>
      <rect class="cls-1" x="446.25" y="701.8" width="55.78" height="50.14"/>
      <rect class="cls-3" x="446.25" y="651.67" width="55.78" height="50.13"/>
      <rect class="cls-3" x="446.25" y="551.42" width="55.78" height="50.13"/>
      <rect class="cls-1" x="446.25" y="501.29" width="55.78" height="50.13"/>
      <rect class="cls-3" x="446.25" y="451.16" width="55.78" height="50.13"/>
      <rect class="cls-3" x="446.25" y="350.9" width="55.78" height="50.13"/>
      <rect class="cls-1" x="446.25" y="300.77" width="55.78" height="50.13"/>
      <rect class="cls-4" x="446.25" y="250.64" width="55.78" height="50.13"/>
      <rect class="cls-2" x="446.25" y="200.51" width="55.78" height="50.13"/>
      <rect class="cls-2" x="446.25" y="150.38" width="55.78" height="50.13"/>
      <rect class="cls-4" x="446.25" y="100.26" width="55.78" height="50.12"/>
      <rect class="cls-1" x="446.25" y="50.13" width="55.78" height="50.13"/>
      <rect class="cls-3" x="446.25" width="55.78" height="50.13"/>
      <rect class="cls-3" x="390.47" y="1002.58" width="55.78" height="50.13"/>
      <rect class="cls-1" x="390.47" y="952.45" width="55.78" height="50.13"/>
      <rect class="cls-4" x="390.47" y="902.32" width="55.78" height="50.13"/>
      <rect class="cls-4" x="390.47" y="852.19" width="55.78" height="50.13"/>
      <rect class="cls-4" x="390.47" y="802.07" width="55.78" height="50.12"/>
      <rect class="cls-1" x="390.47" y="751.94" width="55.78" height="50.13"/>
      <rect class="cls-3" x="390.47" y="701.8" width="55.78" height="50.14"/>
      <rect class="cls-3" x="390.47" y="601.55" width="55.78" height="50.12"/>
      <rect class="cls-1" x="390.47" y="551.42" width="55.78" height="50.13"/>
      <rect class="cls-4" x="390.47" y="501.29" width="55.78" height="50.13"/>
      <rect class="cls-1" x="390.47" y="451.16" width="55.78" height="50.13"/>
      <rect class="cls-3" x="390.47" y="401.03" width="55.78" height="50.13"/>
      <rect class="cls-3" x="390.47" y="300.77" width="55.78" height="50.13"/>
      <rect class="cls-1" x="390.47" y="250.64" width="55.78" height="50.13"/>
      <rect class="cls-4" x="390.47" y="200.51" width="55.78" height="50.13"/>
      <rect class="cls-4" x="390.47" y="150.38" width="55.78" height="50.13"/>
      <rect class="cls-4" x="390.47" y="100.26" width="55.78" height="50.12"/>
      <rect class="cls-1" x="390.47" y="50.13" width="55.78" height="50.13"/>
      <rect class="cls-3" x="390.47" width="55.78" height="50.13"/>
      <rect class="cls-3" x="334.69" y="952.45" width="55.78" height="50.13"/>
      <rect class="cls-1" x="334.69" y="902.32" width="55.78" height="50.13"/>
      <rect class="cls-1" x="334.69" y="852.19" width="55.78" height="50.13"/>
      <rect class="cls-1" x="334.69" y="802.07" width="55.78" height="50.12"/>
      <rect class="cls-3" x="334.69" y="751.94" width="55.78" height="50.13"/>
      <rect class="cls-3" x="334.69" y="651.67" width="55.78" height="50.13"/>
      <rect class="cls-1" x="334.69" y="601.55" width="55.78" height="50.12"/>
      <rect class="cls-4" x="334.69" y="551.42" width="55.78" height="50.13"/>
      <rect class="cls-2" x="334.69" y="501.29" width="55.78" height="50.13"/>
      <rect class="cls-4" x="334.69" y="451.16" width="55.78" height="50.13"/>
      <rect class="cls-1" x="334.69" y="401.03" width="55.78" height="50.13"/>
      <rect class="cls-3" x="334.69" y="350.9" width="55.78" height="50.13"/>
      <rect class="cls-3" x="334.69" y="250.64" width="55.78" height="50.13"/>
      <rect class="cls-1" x="334.69" y="200.51" width="55.78" height="50.13"/>
      <rect class="cls-1" x="334.69" y="150.38" width="55.78" height="50.13"/>
      <rect class="cls-1" x="334.69" y="100.26" width="55.78" height="50.12"/>
      <rect class="cls-3" x="334.69" y="50.13" width="55.78" height="50.13"/>
      <rect class="cls-3" x="278.91" y="902.32" width="55.78" height="50.13"/>
      <rect class="cls-3" x="278.91" y="852.19" width="55.78" height="50.13"/>
      <rect class="cls-3" x="278.91" y="802.07" width="55.78" height="50.12"/>
      <rect class="cls-3" x="278.91" y="701.8" width="55.78" height="50.14"/>
      <rect class="cls-1" x="278.91" y="651.67" width="55.78" height="50.13"/>
      <rect class="cls-4" x="278.91" y="601.55" width="55.78" height="50.12"/>
      <rect class="cls-2" x="278.91" y="551.42" width="55.78" height="50.13"/>
      <rect class="cls-2" x="278.91" y="501.29" width="55.78" height="50.13"/>
      <rect class="cls-2" x="278.91" y="451.16" width="55.78" height="50.13"/>
      <rect class="cls-4" x="278.91" y="401.03" width="55.78" height="50.13"/>
      <rect class="cls-1" x="278.91" y="350.9" width="55.78" height="50.13"/>
      <rect class="cls-3" x="278.91" y="300.77" width="55.78" height="50.13"/>
      <rect class="cls-3" x="278.91" y="200.51" width="55.78" height="50.13"/>
      <rect class="cls-3" x="278.91" y="150.38" width="55.78" height="50.13"/>
      <rect class="cls-3" x="278.91" y="100.26" width="55.78" height="50.12"/>
      <rect class="cls-3" x="223.12" y="751.94" width="55.79" height="50.13"/>
      <rect class="cls-1" x="223.12" y="701.8" width="55.79" height="50.14"/>
      <rect class="cls-4" x="223.12" y="651.67" width="55.79" height="50.13"/>
      <rect class="cls-2" x="223.12" y="601.55" width="55.79" height="50.12"/>
      <rect class="cls-2" x="223.12" y="551.42" width="55.79" height="50.13"/>
      <rect class="cls-4" x="223.12" y="501.29" width="55.79" height="50.13"/>
      <rect class="cls-2" x="223.12" y="451.16" width="55.79" height="50.13"/>
      <rect class="cls-2" x="223.12" y="401.03" width="55.79" height="50.13"/>
      <rect class="cls-4" x="223.12" y="350.9" width="55.79" height="50.13"/>
      <rect class="cls-1" x="223.12" y="300.77" width="55.79" height="50.13"/>
      <rect class="cls-3" x="223.12" y="250.64" width="55.79" height="50.13"/>
      <rect class="cls-3" x="167.34" y="751.94" width="55.78" height="50.13"/>
      <rect class="cls-1" x="167.34" y="701.8" width="55.78" height="50.14"/>
      <rect class="cls-4" x="167.34" y="651.67" width="55.78" height="50.13"/>
      <rect class="cls-2" x="167.34" y="601.55" width="55.78" height="50.12"/>
      <rect class="cls-4" x="167.34" y="551.42" width="55.78" height="50.13"/>
      <rect class="cls-1" x="167.34" y="501.29" width="55.78" height="50.13"/>
      <rect class="cls-4" x="167.34" y="451.16" width="55.78" height="50.13"/>
      <rect class="cls-2" x="167.34" y="401.03" width="55.78" height="50.13"/>
      <rect class="cls-4" x="167.34" y="350.9" width="55.78" height="50.13"/>
      <rect class="cls-1" x="167.34" y="300.77" width="55.78" height="50.13"/>
      <rect class="cls-3" x="167.34" y="250.64" width="55.78" height="50.13"/>
      <rect class="cls-3" x="111.56" y="751.94" width="55.78" height="50.13"/>
      <rect class="cls-1" x="111.56" y="701.8" width="55.78" height="50.14"/>
      <rect class="cls-4" x="111.56" y="651.67" width="55.78" height="50.13"/>
      <rect class="cls-4" x="111.56" y="601.55" width="55.78" height="50.12"/>
      <rect class="cls-1" x="111.56" y="551.42" width="55.78" height="50.13"/>
      <rect class="cls-3" x="111.56" y="501.29" width="55.78" height="50.13"/>
      <rect class="cls-1" x="111.56" y="451.16" width="55.78" height="50.13"/>
      <rect class="cls-4" x="111.56" y="401.03" width="55.78" height="50.13"/>
      <rect class="cls-4" x="111.56" y="350.9" width="55.78" height="50.13"/>
      <rect class="cls-1" x="111.56" y="300.77" width="55.78" height="50.13"/>
      <rect class="cls-3" x="111.56" y="250.64" width="55.78" height="50.13"/>
      <rect class="cls-3" x="55.78" y="701.8" width="55.78" height="50.14"/>
      <rect class="cls-1" x="55.78" y="651.67" width="55.78" height="50.13"/>
      <rect class="cls-1" x="55.78" y="601.55" width="55.78" height="50.12"/>
      <rect class="cls-3" x="55.78" y="551.42" width="55.78" height="50.13"/>
      <rect class="cls-3" x="55.78" y="451.16" width="55.78" height="50.13"/>
      <rect class="cls-1" x="55.78" y="401.03" width="55.78" height="50.13"/>
      <rect class="cls-1" x="55.78" y="350.9" width="55.78" height="50.13"/>
      <rect class="cls-3" x="55.78" y="300.77" width="55.78" height="50.13"/>
      <rect class="cls-3" y="651.67" width="55.78" height="50.13"/>
      <rect class="cls-3" y="601.55" width="55.78" height="50.12"/>
      <rect class="cls-3" y="401.03" width="55.78" height="50.13"/>
      <rect class="cls-3" y="350.9" width="55.78" height="50.13"/>
    </g>
  </g>
</svg>