<?xml version="1.0" encoding="UTF-8"?>
<svg id="Layer_2" data-name="Layer 2" xmlns="http://www.w3.org/2000/svg" viewBox="0 0 100.58 114.09">
  <defs>
    <style>
      .cls-1 {
        fill: #fff;
      }

      .cls-2 {
        fill: #bfbfbf;
      }

      .cls-3 {
        fill: #ffbf00;
      }

      .cls-4 {
        fill: #616161;
      }

      .cls-5 {
        fill: #999;
      }

      .cls-6 {
        fill: #383838;
      }

      .cls-7 {
        fill: red;
      }
    </style>
  </defs>
  <g id="_ëîé_1" data-name="‘ëîé_1">
    <g>
      <rect x="93.83" y="47.25" width="6.75" height="6.75"/>
      <rect x="93.83" y="27" width="6.75" height="6.75"/>
      <rect x="93.83" width="6.75" height="6.75"/>
      <rect x="87.08" y="40.5" width="6.75" height="6.75"/>
      <rect class="cls-3" x="87.08" y="27" width="6.75" height="6.75"/>
      <rect class="cls-3" x="87.08" y="20.25" width="6.75" height="6.75"/>
      <rect class="cls-3" x="87.08" y="13.5" width="6.75" height="6.75"/>
      <rect x="87.08" y="6.75" width="6.75" height="6.75"/>
      <rect class="cls-3" x="80.33" y="33.75" width="6.75" height="6.75"/>
      <rect class="cls-7" x="80.33" y="27" width="6.75" height="6.75"/>
      <rect class="cls-7" x="80.33" y="20.25" width="6.75" height="6.75"/>
      <rect class="cls-3" x="80.33" y="13.5" width="6.75" height="6.75"/>
      <rect class="cls-3" x="73.58" y="40.5" width="6.75" height="6.75"/>
      <rect class="cls-7" x="73.58" y="33.75" width="6.75" height="6.75"/>
      <rect x="73.58" y="27" width="6.75" height="6.75"/>
      <rect class="cls-7" x="73.58" y="20.25" width="6.75" height="6.75"/>
      <rect class="cls-3" x="73.58" y="13.5" width="6.75" height="6.75"/>
      <rect x="66.83" y="87.76" width="6.75" height="6.75"/>
      <rect x="66.83" y="81.01" width="6.75" height="6.75"/>
      <rect x="66.83" y="74.26" width="6.75" height="6.75"/>
      <rect x="66.83" y="67.51" width="6.75" height="6.75"/>
      <rect x="66.83" y="60.76" width="6.75" height="6.75"/>
      <rect x="66.83" y="47.25" width="6.75" height="6.75"/>
      <rect x="66.83" y="33.75" width="6.75" height="6.75"/>
      <rect class="cls-7" x="66.83" y="27" width="6.75" height="6.75"/>
      <rect class="cls-7" x="66.83" y="20.25" width="6.75" height="6.75"/>
      <rect x="60.08" y="94.51" width="6.75" height="6.08"/>
      <rect class="cls-4" x="60.08" y="87.76" width="6.75" height="6.75"/>
      <rect class="cls-6" x="60.08" y="81.01" width="6.75" height="6.75"/>
      <rect class="cls-6" x="60.08" y="74.26" width="6.75" height="6.75"/>
      <rect class="cls-6" x="60.08" y="67.51" width="6.75" height="6.75"/>
      <rect class="cls-6" x="60.08" y="60.76" width="6.75" height="6.75"/>
      <rect x="60.08" y="54.01" width="6.75" height="6.75"/>
      <rect class="cls-4" x="60.08" y="47.25" width="6.75" height="6.75"/>
      <rect x="60.08" y="40.5" width="6.75" height="6.75"/>
      <rect class="cls-3" x="60.08" y="27" width="6.75" height="6.75"/>
      <rect class="cls-3" x="60.08" y="13.5" width="6.75" height="6.75"/>
      <rect x="53.33" y="100.58" width="6.75" height="6.75"/>
      <rect class="cls-4" x="53.33" y="94.51" width="6.75" height="6.08"/>
      <rect class="cls-6" x="53.33" y="87.76" width="6.75" height="6.75"/>
      <rect class="cls-6" x="53.33" y="81.01" width="6.75" height="6.75"/>
      <rect class="cls-6" x="53.33" y="74.26" width="6.75" height="6.75"/>
      <rect class="cls-6" x="53.33" y="67.51" width="6.75" height="6.75"/>
      <rect class="cls-6" x="53.33" y="60.76" width="6.75" height="6.75"/>
      <rect class="cls-6" x="53.33" y="54.01" width="6.75" height="6.75"/>
      <rect x="53.33" y="47.25" width="6.75" height="6.75"/>
      <rect class="cls-4" x="53.33" y="40.5" width="6.75" height="6.75"/>
      <rect x="53.33" y="33.75" width="6.75" height="6.75"/>
      <rect x="53.33" y="13.5" width="6.75" height="6.75"/>
      <rect x="46.58" y="107.34" width="6.75" height="6.75"/>
      <rect class="cls-4" x="46.58" y="100.58" width="6.75" height="6.75"/>
      <rect class="cls-6" x="46.58" y="94.51" width="6.75" height="6.08"/>
      <rect class="cls-6" x="46.58" y="87.76" width="6.75" height="6.75"/>
      <rect class="cls-6" x="46.58" y="81.01" width="6.75" height="6.75"/>
      <rect class="cls-6" x="46.58" y="74.26" width="6.75" height="6.75"/>
      <rect class="cls-4" x="46.58" y="67.51" width="6.75" height="6.75"/>
      <rect class="cls-4" x="46.58" y="60.76" width="6.75" height="6.75"/>
      <rect class="cls-4" x="46.58" y="54.01" width="6.75" height="6.75"/>
      <rect class="cls-4" x="46.58" y="47.25" width="6.75" height="6.75"/>
      <rect x="46.58" y="40.5" width="6.75" height="6.75"/>
      <rect x="46.58" y="6.75" width="6.75" height="6.75"/>
      <rect x="40.5" y="107.34" width="6.08" height="6.75"/>
      <rect class="cls-4" x="40.5" y="100.58" width="6.08" height="6.75"/>
      <rect class="cls-6" x="40.5" y="94.51" width="6.08" height="6.08"/>
      <rect class="cls-6" x="40.5" y="87.76" width="6.08" height="6.75"/>
      <rect class="cls-6" x="40.5" y="81.01" width="6.08" height="6.75"/>
      <rect class="cls-4" x="40.5" y="74.26" width="6.08" height="6.75"/>
      <rect class="cls-4" x="40.5" y="67.51" width="6.08" height="6.75"/>
      <rect class="cls-4" x="40.5" y="60.76" width="6.08" height="6.75"/>
      <rect class="cls-4" x="40.5" y="54.01" width="6.08" height="6.75"/>
      <rect class="cls-4" x="40.5" y="47.25" width="6.08" height="6.75"/>
      <rect x="40.5" y="40.5" width="6.08" height="6.75"/>
      <rect x="33.75" y="107.34" width="6.75" height="6.75"/>
      <rect class="cls-4" x="33.75" y="100.58" width="6.75" height="6.75"/>
      <rect class="cls-6" x="33.75" y="94.51" width="6.75" height="6.08"/>
      <rect class="cls-6" x="33.75" y="87.76" width="6.75" height="6.75"/>
      <rect class="cls-6" x="33.75" y="81.01" width="6.75" height="6.75"/>
      <rect class="cls-4" x="33.75" y="74.26" width="6.75" height="6.75"/>
      <rect class="cls-4" x="33.75" y="67.51" width="6.75" height="6.75"/>
      <rect class="cls-5" x="33.75" y="60.76" width="6.75" height="6.75"/>
      <rect class="cls-5" x="33.75" y="54.01" width="6.75" height="6.75"/>
      <rect class="cls-4" x="33.75" y="47.25" width="6.75" height="6.75"/>
      <rect x="33.75" y="40.5" width="6.75" height="6.75"/>
      <rect x="27" y="107.34" width="6.75" height="6.75"/>
      <rect class="cls-6" x="27" y="100.58" width="6.75" height="6.75"/>
      <rect class="cls-6" x="27" y="94.51" width="6.75" height="6.08"/>
      <rect class="cls-6" x="27" y="87.76" width="6.75" height="6.75"/>
      <rect class="cls-4" x="27" y="81.01" width="6.75" height="6.75"/>
      <rect class="cls-4" x="27" y="74.26" width="6.75" height="6.75"/>
      <rect class="cls-5" x="27" y="67.51" width="6.75" height="6.75"/>
      <rect class="cls-1" x="27" y="60.76" width="6.75" height="6.75"/>
      <rect class="cls-2" x="27" y="54.01" width="6.75" height="6.75"/>
      <rect class="cls-4" x="27" y="47.25" width="6.75" height="6.75"/>
      <rect x="27" y="40.5" width="6.75" height="6.75"/>
      <rect x="20.25" y="107.34" width="6.75" height="6.75"/>
      <rect class="cls-6" x="20.25" y="100.58" width="6.75" height="6.75"/>
      <rect class="cls-6" x="20.25" y="94.51" width="6.75" height="6.08"/>
      <rect class="cls-6" x="20.25" y="87.76" width="6.75" height="6.75"/>
      <rect class="cls-4" x="20.25" y="81.01" width="6.75" height="6.75"/>
      <rect class="cls-4" x="20.25" y="74.26" width="6.75" height="6.75"/>
      <rect class="cls-5" x="20.25" y="67.51" width="6.75" height="6.75"/>
      <rect class="cls-2" x="20.25" y="60.76" width="6.75" height="6.75"/>
      <rect class="cls-5" x="20.25" y="54.01" width="6.75" height="6.75"/>
      <rect class="cls-4" x="20.25" y="47.25" width="6.75" height="6.75"/>
      <rect x="20.25" y="40.5" width="6.75" height="6.75"/>
      <rect x="13.5" y="100.58" width="6.75" height="6.75"/>
      <rect class="cls-6" x="13.5" y="94.51" width="6.75" height="6.08"/>
      <rect class="cls-6" x="13.5" y="87.76" width="6.75" height="6.75"/>
      <rect class="cls-6" x="13.5" y="81.01" width="6.75" height="6.75"/>
      <rect class="cls-4" x="13.5" y="74.26" width="6.75" height="6.75"/>
      <rect class="cls-4" x="13.5" y="67.51" width="6.75" height="6.75"/>
      <rect class="cls-4" x="13.5" y="60.76" width="6.75" height="6.75"/>
      <rect class="cls-4" x="13.5" y="54.01" width="6.75" height="6.75"/>
      <rect x="13.5" y="47.25" width="6.75" height="6.75"/>
      <rect x="6.75" y="94.51" width="6.75" height="6.08"/>
      <rect class="cls-6" x="6.75" y="87.76" width="6.75" height="6.75"/>
      <rect class="cls-6" x="6.75" y="81.01" width="6.75" height="6.75"/>
      <rect class="cls-4" x="6.75" y="74.26" width="6.75" height="6.75"/>
      <rect class="cls-4" x="6.75" y="67.51" width="6.75" height="6.75"/>
      <rect class="cls-4" x="6.75" y="60.76" width="6.75" height="6.75"/>
      <rect x="6.75" y="54.01" width="6.75" height="6.75"/>
      <rect y="87.76" width="6.75" height="6.75"/>
      <rect y="81.01" width="6.75" height="6.75"/>
      <rect y="74.26" width="6.75" height="6.75"/>
      <rect y="67.51" width="6.75" height="6.75"/>
      <rect y="60.76" width="6.75" height="6.75"/>
    </g>
  </g>
</svg>