<?xml version="1.0" encoding="UTF-8"?>
<svg id="Layer_2" data-name="Layer 2" xmlns="http://www.w3.org/2000/svg" viewBox="0 0 100.58 81.01">
  <defs>
    <style>
      .cls-1 {
        fill: #80f0ff;
      }

      .cls-2 {
        fill: #fff;
      }

      .cls-3 {
        fill: #04cdff;
      }

      .cls-4 {
        fill: #049fed;
      }

      .cls-5 {
        fill: #04c1ff;
      }
    </style>
  </defs>
  <g id="_ëîé_1" data-name="‘ëîé_1">
    <g>
      <rect x="94.51" y="27" width="6.08" height="6.75"/>
      <rect x="94.51" y="20.25" width="6.08" height="6.75"/>
      <rect x="94.51" y="13.5" width="6.08" height="6.75"/>
      <rect x="87.76" y="33.75" width="6.75" height="6.75"/>
      <rect class="cls-4" x="87.76" y="27" width="6.75" height="6.75"/>
      <rect class="cls-3" x="87.76" y="20.25" width="6.75" height="6.75"/>
      <rect class="cls-3" x="87.76" y="13.5" width="6.75" height="6.75"/>
      <rect x="87.76" y="6.75" width="6.75" height="6.75"/>
      <rect x="81.01" y="40.5" width="6.75" height="6.75"/>
      <rect x="81.01" y="33.75" width="6.75" height="6.75"/>
      <rect class="cls-4" x="81.01" y="27" width="6.75" height="6.75"/>
      <rect class="cls-3" x="81.01" y="20.25" width="6.75" height="6.75"/>
      <rect x="81.01" y="13.5" width="6.75" height="6.75"/>
      <rect class="cls-1" x="81.01" y="6.75" width="6.75" height="6.75"/>
      <rect x="81.01" width="6.75" height="6.75"/>
      <rect x="74.26" y="47.25" width="6.75" height="6.75"/>
      <rect class="cls-4" x="74.26" y="40.5" width="6.75" height="6.75"/>
      <rect x="74.26" y="33.75" width="6.75" height="6.75"/>
      <rect class="cls-3" x="74.26" y="27" width="6.75" height="6.75"/>
      <rect x="74.26" y="20.25" width="6.75" height="6.75"/>
      <rect class="cls-1" x="74.26" y="13.5" width="6.75" height="6.75"/>
      <rect class="cls-1" x="74.26" y="6.75" width="6.75" height="6.75"/>
      <rect x="74.26" width="6.75" height="6.75"/>
      <rect x="67.51" y="54.01" width="6.75" height="6.75"/>
      <rect class="cls-4" x="67.51" y="47.25" width="6.75" height="6.75"/>
      <rect class="cls-2" x="67.51" y="40.5" width="6.75" height="6.75"/>
      <rect x="67.51" y="33.75" width="6.75" height="6.75"/>
      <rect x="67.51" y="27" width="6.75" height="6.75"/>
      <rect class="cls-1" x="67.51" y="20.25" width="6.75" height="6.75"/>
      <rect class="cls-2" x="67.51" y="13.5" width="6.75" height="6.75"/>
      <rect class="cls-1" x="67.51" y="6.75" width="6.75" height="6.75"/>
      <rect x="67.51" width="6.75" height="6.75"/>
      <rect x="60.76" y="60.76" width="6.75" height="6.75"/>
      <rect class="cls-4" x="60.76" y="54.01" width="6.75" height="6.75"/>
      <rect class="cls-4" x="60.76" y="47.25" width="6.75" height="6.75"/>
      <rect x="60.76" y="40.5" width="6.75" height="6.75"/>
      <rect x="60.76" y="33.75" width="6.75" height="6.75"/>
      <rect class="cls-2" x="60.76" y="27" width="6.75" height="6.75"/>
      <rect x="60.76" y="20.25" width="6.75" height="6.75"/>
      <rect class="cls-1" x="60.76" y="13.5" width="6.75" height="6.75"/>
      <rect class="cls-2" x="60.76" y="6.75" width="6.75" height="6.75"/>
      <rect x="60.76" width="6.75" height="6.75"/>
      <rect x="54.01" y="67.51" width="6.75" height="6.75"/>
      <rect class="cls-4" x="54.01" y="60.76" width="6.75" height="6.75"/>
      <rect x="54.01" y="54.01" width="6.75" height="6.75"/>
      <rect x="54.01" y="47.25" width="6.75" height="6.75"/>
      <rect class="cls-4" x="54.01" y="40.5" width="6.75" height="6.75"/>
      <rect x="54.01" y="33.75" width="6.75" height="6.75"/>
      <rect class="cls-2" x="54.01" y="27" width="6.75" height="6.75"/>
      <rect class="cls-2" x="54.01" y="20.25" width="6.75" height="6.75"/>
      <rect x="54.01" y="13.5" width="6.75" height="6.75"/>
      <rect class="cls-1" x="54.01" y="6.75" width="6.75" height="6.75"/>
      <rect x="54.01" width="6.75" height="6.75"/>
      <rect x="47.25" y="74.26" width="6.75" height="6.75"/>
      <rect class="cls-4" x="47.25" y="67.51" width="6.75" height="6.75"/>
      <rect x="47.25" y="60.76" width="6.75" height="6.75"/>
      <rect class="cls-4" x="47.25" y="54.01" width="6.75" height="6.75"/>
      <rect class="cls-2" x="47.25" y="47.25" width="6.75" height="6.75"/>
      <rect class="cls-4" x="47.25" y="40.5" width="6.75" height="6.75"/>
      <rect x="47.25" y="33.75" width="6.75" height="6.75"/>
      <rect class="cls-1" x="47.25" y="27" width="6.75" height="6.75"/>
      <rect class="cls-3" x="47.25" y="20.25" width="6.75" height="6.75"/>
      <rect class="cls-5" x="47.25" y="13.5" width="6.75" height="6.75"/>
      <rect x="47.25" y="6.75" width="6.75" height="6.75"/>
      <rect x="47.25" width="6.75" height="6.75"/>
      <rect x="40.5" y="67.51" width="6.75" height="6.75"/>
      <rect class="cls-4" x="40.5" y="60.76" width="6.75" height="6.75"/>
      <rect x="40.5" y="54.01" width="6.75" height="6.75"/>
      <rect x="40.5" y="47.25" width="6.75" height="6.75"/>
      <rect class="cls-2" x="40.5" y="40.5" width="6.75" height="6.75"/>
      <rect x="40.5" y="33.75" width="6.75" height="6.75"/>
      <rect class="cls-1" x="40.5" y="27" width="6.75" height="6.75"/>
      <rect class="cls-3" x="40.5" y="20.25" width="6.75" height="6.75"/>
      <rect x="40.5" y="13.5" width="6.75" height="6.75"/>
      <rect class="cls-1" x="40.5" y="6.75" width="6.75" height="6.75"/>
      <rect x="40.5" width="6.75" height="6.75"/>
      <rect x="33.75" y="60.76" width="6.75" height="6.75"/>
      <rect class="cls-4" x="33.75" y="54.01" width="6.75" height="6.75"/>
      <rect class="cls-4" x="33.75" y="47.25" width="6.75" height="6.75"/>
      <rect x="33.75" y="40.5" width="6.75" height="6.75"/>
      <rect x="33.75" y="33.75" width="6.75" height="6.75"/>
      <rect class="cls-1" x="33.75" y="27" width="6.75" height="6.75"/>
      <rect x="33.75" y="20.25" width="6.75" height="6.75"/>
      <rect class="cls-1" x="33.75" y="13.5" width="6.75" height="6.75"/>
      <rect class="cls-1" x="33.75" y="6.75" width="6.75" height="6.75"/>
      <rect x="33.75" width="6.75" height="6.75"/>
      <rect x="27" y="54.01" width="6.75" height="6.75"/>
      <rect class="cls-4" x="27" y="47.25" width="6.75" height="6.75"/>
      <rect class="cls-4" x="27" y="40.5" width="6.75" height="6.75"/>
      <rect x="27" y="33.75" width="6.75" height="6.75"/>
      <rect x="27" y="27" width="6.75" height="6.75"/>
      <rect class="cls-1" x="27" y="20.25" width="6.75" height="6.75"/>
      <rect class="cls-2" x="27" y="13.5" width="6.75" height="6.75"/>
      <rect class="cls-1" x="27" y="6.75" width="6.75" height="6.75"/>
      <rect x="27" width="6.75" height="6.75"/>
      <rect x="20.25" y="47.25" width="6.75" height="6.75"/>
      <rect class="cls-4" x="20.25" y="40.5" width="6.75" height="6.75"/>
      <rect x="20.25" y="33.75" width="6.75" height="6.75"/>
      <rect class="cls-3" x="20.25" y="27" width="6.75" height="6.75"/>
      <rect x="20.25" y="20.25" width="6.75" height="6.75"/>
      <rect class="cls-1" x="20.25" y="13.5" width="6.75" height="6.75"/>
      <rect class="cls-2" x="20.25" y="6.75" width="6.75" height="6.75"/>
      <rect x="20.25" width="6.75" height="6.75"/>
      <rect x="13.5" y="40.5" width="6.75" height="6.75"/>
      <rect x="13.5" y="33.75" width="6.75" height="6.75"/>
      <rect class="cls-4" x="13.5" y="27" width="6.75" height="6.75"/>
      <rect class="cls-3" x="13.5" y="20.25" width="6.75" height="6.75"/>
      <rect x="13.5" y="13.5" width="6.75" height="6.75"/>
      <rect class="cls-1" x="13.5" y="6.75" width="6.75" height="6.75"/>
      <rect x="13.5" width="6.75" height="6.75"/>
      <rect x="6.75" y="33.75" width="6.75" height="6.75"/>
      <rect class="cls-4" x="6.75" y="27" width="6.75" height="6.75"/>
      <rect class="cls-3" x="6.75" y="20.25" width="6.75" height="6.75"/>
      <rect class="cls-3" x="6.75" y="13.5" width="6.75" height="6.75"/>
      <rect x="6.75" y="6.75" width="6.75" height="6.75"/>
      <rect y="27" width="6.75" height="6.75"/>
      <rect y="20.25" width="6.75" height="6.75"/>
      <rect y="13.5" width="6.75" height="6.75"/>
    </g>
  </g>
</svg>