<?xml version="1.0" encoding="UTF-8"?>
<svg id="Layer_2" data-name="Layer 2" xmlns="http://www.w3.org/2000/svg" viewBox="0 0 107.34 107.34">
  <defs>
    <style>
      .cls-1 {
        fill: #fff;
      }

      .cls-2 {
        fill: #f0c792;
      }

      .cls-3 {
        fill: #75480e;
      }

      .cls-4 {
        fill: #a16313;
      }

      .cls-5 {
        fill: #ff9d1e;
      }

      .cls-6 {
        fill: #b87116;
      }
    </style>
  </defs>
  <g id="_ëîé_1" data-name="‘ëîé_1">
    <g>
      <rect x="100.58" y="40.5" width="6.75" height="6.08"/>
      <rect x="100.58" y="33.75" width="6.75" height="6.75"/>
      <rect x="100.58" y="27" width="6.75" height="6.75"/>
      <rect x="100.58" y="20.25" width="6.75" height="6.75"/>
      <rect x="93.83" y="46.58" width="6.75" height="6.75"/>
      <rect class="cls-3" x="93.83" y="40.5" width="6.75" height="6.08"/>
      <rect class="cls-3" x="93.83" y="33.75" width="6.75" height="6.75"/>
      <rect class="cls-3" x="93.83" y="27" width="6.75" height="6.75"/>
      <rect class="cls-3" x="93.83" y="20.25" width="6.75" height="6.75"/>
      <rect x="93.83" y="13.5" width="6.75" height="6.75"/>
      <rect x="87.08" y="53.33" width="6.75" height="6.75"/>
      <rect class="cls-3" x="87.08" y="46.58" width="6.75" height="6.75"/>
      <rect class="cls-3" x="87.08" y="40.5" width="6.75" height="6.08"/>
      <rect class="cls-4" x="87.08" y="33.75" width="6.75" height="6.75"/>
      <rect class="cls-4" x="87.08" y="27" width="6.75" height="6.75"/>
      <rect class="cls-4" x="87.08" y="20.25" width="6.75" height="6.75"/>
      <rect class="cls-4" x="87.08" y="13.5" width="6.75" height="6.75"/>
      <rect x="87.08" y="6.75" width="6.75" height="6.75"/>
      <rect x="80.33" y="60.08" width="6.75" height="6.75"/>
      <rect class="cls-3" x="80.33" y="53.33" width="6.75" height="6.75"/>
      <rect class="cls-3" x="80.33" y="46.58" width="6.75" height="6.75"/>
      <rect class="cls-4" x="80.33" y="40.5" width="6.75" height="6.08"/>
      <rect class="cls-4" x="80.33" y="33.75" width="6.75" height="6.75"/>
      <rect class="cls-4" x="80.33" y="27" width="6.75" height="6.75"/>
      <rect class="cls-4" x="80.33" y="20.25" width="6.75" height="6.75"/>
      <rect class="cls-4" x="80.33" y="13.5" width="6.75" height="6.75"/>
      <rect class="cls-4" x="80.33" y="6.75" width="6.75" height="6.75"/>
      <rect x="80.33" width="6.75" height="6.75"/>
      <rect x="73.58" y="66.83" width="6.75" height="6.75"/>
      <rect class="cls-3" x="73.58" y="60.08" width="6.75" height="6.75"/>
      <rect class="cls-3" x="73.58" y="53.33" width="6.75" height="6.75"/>
      <rect class="cls-4" x="73.58" y="46.58" width="6.75" height="6.75"/>
      <rect class="cls-4" x="73.58" y="40.5" width="6.75" height="6.08"/>
      <rect class="cls-4" x="73.58" y="33.75" width="6.75" height="6.75"/>
      <rect class="cls-4" x="73.58" y="27" width="6.75" height="6.75"/>
      <rect class="cls-6" x="73.58" y="20.25" width="6.75" height="6.75"/>
      <rect class="cls-6" x="73.58" y="13.5" width="6.75" height="6.75"/>
      <rect class="cls-4" x="73.58" y="6.75" width="6.75" height="6.75"/>
      <rect x="73.58" width="6.75" height="6.75"/>
      <rect x="66.83" y="66.83" width="6.75" height="6.75"/>
      <rect class="cls-3" x="66.83" y="60.08" width="6.75" height="6.75"/>
      <rect class="cls-4" x="66.83" y="53.33" width="6.75" height="6.75"/>
      <rect class="cls-4" x="66.83" y="46.58" width="6.75" height="6.75"/>
      <rect class="cls-4" x="66.83" y="40.5" width="6.75" height="6.08"/>
      <rect class="cls-6" x="66.83" y="33.75" width="6.75" height="6.75"/>
      <rect class="cls-5" x="66.83" y="27" width="6.75" height="6.75"/>
      <rect class="cls-5" x="66.83" y="20.25" width="6.75" height="6.75"/>
      <rect class="cls-5" x="66.83" y="13.5" width="6.75" height="6.75"/>
      <rect class="cls-4" x="66.83" y="6.75" width="6.75" height="6.75"/>
      <rect x="66.83" width="6.75" height="6.75"/>
      <rect x="60.08" y="66.83" width="6.75" height="6.75"/>
      <rect class="cls-3" x="60.08" y="60.08" width="6.75" height="6.75"/>
      <rect class="cls-4" x="60.08" y="53.33" width="6.75" height="6.75"/>
      <rect class="cls-4" x="60.08" y="46.58" width="6.75" height="6.75"/>
      <rect class="cls-6" x="60.08" y="40.5" width="6.75" height="6.08"/>
      <rect class="cls-6" x="60.08" y="33.75" width="6.75" height="6.75"/>
      <rect class="cls-5" x="60.08" y="27" width="6.75" height="6.75"/>
      <rect class="cls-1" x="60.08" y="20.25" width="6.75" height="6.75"/>
      <rect class="cls-5" x="60.08" y="13.5" width="6.75" height="6.75"/>
      <rect class="cls-4" x="60.08" y="6.75" width="6.75" height="6.75"/>
      <rect x="60.08" width="6.75" height="6.75"/>
      <rect x="53.33" y="66.83" width="6.75" height="6.75"/>
      <rect class="cls-3" x="53.33" y="60.08" width="6.75" height="6.75"/>
      <rect class="cls-4" x="53.33" y="53.33" width="6.75" height="6.75"/>
      <rect class="cls-4" x="53.33" y="46.58" width="6.75" height="6.75"/>
      <rect class="cls-6" x="53.33" y="40.5" width="6.75" height="6.08"/>
      <rect class="cls-5" x="53.33" y="33.75" width="6.75" height="6.75"/>
      <rect class="cls-1" x="53.33" y="27" width="6.75" height="6.75"/>
      <rect class="cls-5" x="53.33" y="20.25" width="6.75" height="6.75"/>
      <rect class="cls-4" x="53.33" y="13.5" width="6.75" height="6.75"/>
      <rect x="53.33" y="6.75" width="6.75" height="6.75"/>
      <rect x="46.58" y="66.83" width="6.75" height="6.75"/>
      <rect class="cls-3" x="46.58" y="60.08" width="6.75" height="6.75"/>
      <rect class="cls-4" x="46.58" y="53.33" width="6.75" height="6.75"/>
      <rect class="cls-4" x="46.58" y="46.58" width="6.75" height="6.75"/>
      <rect class="cls-6" x="46.58" y="40.5" width="6.75" height="6.08"/>
      <rect class="cls-6" x="46.58" y="33.75" width="6.75" height="6.75"/>
      <rect class="cls-6" x="46.58" y="27" width="6.75" height="6.75"/>
      <rect class="cls-4" x="46.58" y="20.25" width="6.75" height="6.75"/>
      <rect x="46.58" y="13.5" width="6.75" height="6.75"/>
      <rect x="39.83" y="73.58" width="6.75" height="6.75"/>
      <rect x="39.83" y="66.83" width="6.75" height="6.75"/>
      <rect class="cls-3" x="39.83" y="60.08" width="6.75" height="6.75"/>
      <rect class="cls-4" x="39.83" y="53.33" width="6.75" height="6.75"/>
      <rect class="cls-4" x="39.83" y="46.58" width="6.75" height="6.75"/>
      <rect class="cls-4" x="39.83" y="40.5" width="6.75" height="6.08"/>
      <rect class="cls-4" x="39.83" y="33.75" width="6.75" height="6.75"/>
      <rect x="39.83" y="27" width="6.75" height="6.75"/>
      <rect x="39.83" y="20.25" width="6.75" height="6.75"/>
      <rect x="33.08" y="80.33" width="6.75" height="6.75"/>
      <rect class="cls-2" x="33.08" y="73.58" width="6.75" height="6.75"/>
      <rect x="33.08" y="66.83" width="6.75" height="6.75"/>
      <rect x="33.08" y="60.08" width="6.75" height="6.75"/>
      <rect x="33.08" y="53.33" width="6.75" height="6.75"/>
      <rect x="33.08" y="46.58" width="6.75" height="6.75"/>
      <rect x="33.08" y="40.5" width="6.75" height="6.08"/>
      <rect x="33.08" y="33.75" width="6.75" height="6.75"/>
      <rect x="26.33" y="93.83" width="6.75" height="6.75"/>
      <rect x="26.33" y="87.08" width="6.75" height="6.75"/>
      <rect class="cls-2" x="26.33" y="80.33" width="6.75" height="6.75"/>
      <rect class="cls-2" x="26.33" y="73.58" width="6.75" height="6.75"/>
      <rect class="cls-2" x="26.33" y="66.83" width="6.75" height="6.75"/>
      <rect x="26.33" y="60.08" width="6.75" height="6.75"/>
      <rect x="19.58" y="100.58" width="6.75" height="6.75"/>
      <rect class="cls-2" x="19.58" y="93.83" width="6.75" height="6.75"/>
      <rect class="cls-2" x="19.58" y="87.08" width="6.75" height="6.75"/>
      <rect class="cls-2" x="19.58" y="80.33" width="6.75" height="6.75"/>
      <rect class="cls-2" x="19.58" y="73.58" width="6.75" height="6.75"/>
      <rect x="19.58" y="66.83" width="6.75" height="6.75"/>
      <rect x="13.5" y="100.58" width="6.08" height="6.75"/>
      <rect class="cls-2" x="13.5" y="93.83" width="6.08" height="6.75"/>
      <rect class="cls-2" x="13.5" y="87.08" width="6.08" height="6.75"/>
      <rect class="cls-1" x="13.5" y="80.33" width="6.08" height="6.75"/>
      <rect x="13.5" y="73.58" width="6.08" height="6.75"/>
      <rect x="6.75" y="93.83" width="6.75" height="6.75"/>
      <rect class="cls-2" x="6.75" y="87.08" width="6.75" height="6.75"/>
      <rect class="cls-2" x="6.75" y="80.33" width="6.75" height="6.75"/>
      <rect x="6.75" y="73.58" width="6.75" height="6.75"/>
      <rect y="87.08" width="6.75" height="6.75"/>
      <rect y="80.33" width="6.75" height="6.75"/>
    </g>
  </g>
</svg>