<?xml version="1.0" encoding="UTF-8"?>
<svg id="Layer_2" data-name="Layer 2" xmlns="http://www.w3.org/2000/svg" viewBox="0 0 129.15 114.8">
  <defs>
    <style>
      .cls-1 {
        fill: #fff;
      }

      .cls-2 {
        fill: #ffd000;
      }

      .cls-3 {
        fill: #b89600;
      }

      .cls-4 {
        fill: #c7c7c7;
      }
    </style>
  </defs>
  <g id="_ëîé_1" data-name="‘ëîé_1">
    <g>
      <rect x="121.2" y="14.66" width="6.75" height="6.75" transform="translate(97.7 141.01) rotate(-85.91)"/>
      <rect x="121.68" y="7.93" width="6.75" height="6.75" transform="translate(104.86 135.24) rotate(-85.91)"/>
      <rect x="122.16" y="1.19" width="6.75" height="6.75" transform="translate(112.03 129.46) rotate(-85.91)"/>
      <rect x="113.99" y="20.91" width="6.75" height="6.75" transform="translate(84.76 139.62) rotate(-85.91)"/>
      <rect class="cls-4" x="114.47" y="14.18" width="6.75" height="6.75" transform="translate(91.93 133.85) rotate(-85.91)"/>
      <rect class="cls-4" x="114.95" y="7.45" width="6.75" height="6.75" transform="translate(99.09 128.07) rotate(-85.91)"/>
      <rect x="115.43" y=".71" width="6.75" height="6.75" transform="translate(106.25 122.3) rotate(-85.91)"/>
      <rect x="106.77" y="27.17" width="6.75" height="6.75" transform="translate(71.83 138.23) rotate(-85.91)"/>
      <rect class="cls-1" x="107.25" y="20.43" width="6.75" height="6.75" transform="translate(78.99 132.46) rotate(-85.91)"/>
      <rect x="107.73" y="13.7" width="6.75" height="6.75" transform="translate(86.15 126.68) rotate(-85.91)"/>
      <rect class="cls-1" x="108.22" y="6.97" width="6.75" height="6.75" transform="translate(93.32 120.91) rotate(-85.91)"/>
      <rect x="108.7" y=".23" width="6.75" height="6.75" transform="translate(100.48 115.14) rotate(-85.91)"/>
      <rect x="99.56" y="33.42" width="6.75" height="6.75" transform="translate(58.89 136.84) rotate(-85.91)"/>
      <rect class="cls-1" x="100.04" y="26.68" width="6.75" height="6.75" transform="translate(66.05 131.07) rotate(-85.91)"/>
      <rect x="100.52" y="19.95" width="6.75" height="6.75" transform="translate(73.22 125.29) rotate(-85.91)"/>
      <rect class="cls-1" x="101" y="13.22" width="6.75" height="6.75" transform="translate(80.38 119.52) rotate(-85.91)"/>
      <rect x="101.48" y="6.48" width="6.75" height="6.75" transform="translate(87.55 113.75) rotate(-85.91)"/>
      <rect x="92.34" y="39.67" width="6.75" height="6.75" transform="translate(45.95 135.45) rotate(-85.91)"/>
      <rect class="cls-4" x="92.82" y="32.94" width="6.75" height="6.75" transform="translate(53.12 129.68) rotate(-85.91)"/>
      <rect x="93.3" y="26.2" width="6.75" height="6.75" transform="translate(60.28 123.9) rotate(-85.91)"/>
      <rect class="cls-4" x="93.79" y="19.47" width="6.75" height="6.75" transform="translate(67.45 118.13) rotate(-85.91)"/>
      <rect x="94.27" y="12.74" width="6.75" height="6.75" transform="translate(74.61 112.36) rotate(-85.91)"/>
      <rect x="85.46" y="46.28" width="6.75" height="6.08" transform="translate(33.31 134.42) rotate(-85.91)"/>
      <rect class="cls-4" x="85.94" y="39.55" width="6.75" height="6.08" transform="translate(40.47 128.64) rotate(-85.91)"/>
      <rect x="86.43" y="32.82" width="6.75" height="6.08" transform="translate(47.63 122.87) rotate(-85.91)"/>
      <rect class="cls-4" x="86.91" y="26.08" width="6.75" height="6.08" transform="translate(54.8 117.1) rotate(-85.91)"/>
      <rect x="87.39" y="19.35" width="6.75" height="6.08" transform="translate(61.96 111.32) rotate(-85.91)"/>
      <rect x="78.58" y="52.22" width="6.75" height="6.75" transform="translate(20.66 133.38) rotate(-85.91)"/>
      <rect class="cls-4" x="79.07" y="45.49" width="6.75" height="6.75" transform="translate(27.82 127.61) rotate(-85.91)"/>
      <rect x="79.55" y="38.76" width="6.75" height="6.75" transform="translate(34.99 121.84) rotate(-85.91)"/>
      <rect class="cls-4" x="80.03" y="32.02" width="6.75" height="6.75" transform="translate(42.15 116.07) rotate(-85.91)"/>
      <rect x="80.51" y="25.29" width="6.75" height="6.75" transform="translate(49.31 110.29) rotate(-85.91)"/>
      <rect x="71.73" y="58.14" width="6.08" height="6.75" transform="translate(8.08 131.71) rotate(-85.91)"/>
      <rect class="cls-4" x="71.85" y="51.74" width="6.75" height="6.75" transform="translate(14.89 126.22) rotate(-85.91)"/>
      <rect x="72.33" y="45.01" width="6.75" height="6.75" transform="translate(22.05 120.45) rotate(-85.91)"/>
      <rect class="cls-4" x="72.81" y="38.27" width="6.75" height="6.75" transform="translate(29.21 114.67) rotate(-85.91)"/>
      <rect x="73.3" y="31.54" width="6.75" height="6.75" transform="translate(36.38 108.9) rotate(-85.91)"/>
      <rect x="64.2" y="64.05" width="6.75" height="6.75" transform="translate(-4.5 130.03) rotate(-85.91)"/>
      <rect class="cls-4" x="65" y="57.66" width="6.08" height="6.75" transform="translate(2.31 124.54) rotate(-85.91)"/>
      <rect x="65.12" y="51.26" width="6.75" height="6.75" transform="translate(9.11 119.06) rotate(-85.91)"/>
      <rect class="cls-4" x="65.6" y="44.53" width="6.75" height="6.75" transform="translate(16.28 113.28) rotate(-85.91)"/>
      <rect x="66.08" y="37.79" width="6.75" height="6.75" transform="translate(23.44 107.51) rotate(-85.91)"/>
      <rect x="55.54" y="90.51" width="6.75" height="6.75" transform="translate(-38.92 145.96) rotate(-85.91)"/>
      <rect x="56.03" y="83.77" width="6.75" height="6.75" transform="translate(-31.76 140.18) rotate(-85.91)"/>
      <rect x="56.99" y="70.31" width="6.75" height="6.75" transform="translate(-17.43 128.64) rotate(-85.91)"/>
      <rect class="cls-4" x="57.47" y="63.57" width="6.75" height="6.75" transform="translate(-10.27 122.86) rotate(-85.91)"/>
      <rect x="58.26" y="57.18" width="6.08" height="6.75" transform="translate(-3.47 117.38) rotate(-85.91)"/>
      <rect class="cls-4" x="58.38" y="50.78" width="6.75" height="6.75" transform="translate(3.34 111.89) rotate(-85.91)"/>
      <rect x="58.87" y="44.04" width="6.75" height="6.75" transform="translate(10.5 106.12) rotate(-85.91)"/>
      <rect x="48.33" y="96.76" width="6.75" height="6.75" transform="translate(-51.86 144.57) rotate(-85.91)"/>
      <rect class="cls-3" x="48.81" y="90.02" width="6.75" height="6.75" transform="translate(-44.7 138.79) rotate(-85.91)"/>
      <rect class="cls-3" x="49.29" y="83.29" width="6.75" height="6.75" transform="translate(-37.53 133.02) rotate(-85.91)"/>
      <rect x="49.77" y="76.56" width="6.75" height="6.75" transform="translate(-30.37 127.25) rotate(-85.91)"/>
      <rect class="cls-4" x="50.25" y="69.82" width="6.75" height="6.75" transform="translate(-23.21 121.47) rotate(-85.91)"/>
      <rect x="50.74" y="63.09" width="6.75" height="6.75" transform="translate(-16.04 115.7) rotate(-85.91)"/>
      <rect class="cls-4" x="51.53" y="56.69" width="6.08" height="6.75" transform="translate(-9.24 110.22) rotate(-85.91)"/>
      <rect x="51.65" y="50.3" width="6.75" height="6.75" transform="translate(-2.43 104.73) rotate(-85.91)"/>
      <rect x="42.08" y="89.54" width="6.75" height="6.75" transform="translate(-50.47 131.63) rotate(-85.91)"/>
      <rect class="cls-2" x="42.56" y="82.81" width="6.75" height="6.75" transform="translate(-43.31 125.86) rotate(-85.91)"/>
      <rect class="cls-2" x="43.04" y="76.08" width="6.75" height="6.75" transform="translate(-36.14 120.08) rotate(-85.91)"/>
      <rect x="43.52" y="69.34" width="6.75" height="6.75" transform="translate(-28.98 114.31) rotate(-85.91)"/>
      <rect class="cls-4" x="44" y="62.61" width="6.75" height="6.75" transform="translate(-21.82 108.54) rotate(-85.91)"/>
      <rect x="44.8" y="56.21" width="6.08" height="6.75" transform="translate(-15.01 103.05) rotate(-85.91)"/>
      <rect x="35.34" y="89.06" width="6.75" height="6.75" transform="translate(-56.24 124.47) rotate(-85.91)"/>
      <rect x="35.83" y="82.33" width="6.75" height="6.75" transform="translate(-49.08 118.69) rotate(-85.91)"/>
      <rect class="cls-2" x="36.31" y="75.59" width="6.75" height="6.75" transform="translate(-41.92 112.92) rotate(-85.91)"/>
      <rect class="cls-1" x="36.79" y="68.86" width="6.75" height="6.75" transform="translate(-34.75 107.15) rotate(-85.91)"/>
      <rect x="37.27" y="62.13" width="6.75" height="6.75" transform="translate(-27.59 101.37) rotate(-85.91)"/>
      <rect x="28.13" y="95.31" width="6.75" height="6.75" transform="translate(-69.18 123.08) rotate(-85.91)"/>
      <rect class="cls-3" x="28.61" y="88.58" width="6.75" height="6.75" transform="translate(-62.02 117.3) rotate(-85.91)"/>
      <rect class="cls-3" x="29.09" y="81.85" width="6.75" height="6.75" transform="translate(-54.85 111.53) rotate(-85.91)"/>
      <rect x="29.57" y="75.11" width="6.75" height="6.75" transform="translate(-47.69 105.76) rotate(-85.91)"/>
      <rect class="cls-2" x="30.05" y="68.38" width="6.75" height="6.75" transform="translate(-40.53 99.98) rotate(-85.91)"/>
      <rect class="cls-2" x="30.54" y="61.65" width="6.75" height="6.75" transform="translate(-33.36 94.21) rotate(-85.91)"/>
      <rect x="31.33" y="55.25" width="6.08" height="6.75" transform="translate(-26.56 88.73) rotate(-85.91)"/>
      <rect x="20.91" y="101.57" width="6.75" height="6.75" transform="translate(-82.12 121.69) rotate(-85.91)"/>
      <rect class="cls-3" x="21.4" y="94.83" width="6.75" height="6.75" transform="translate(-74.95 115.91) rotate(-85.91)"/>
      <rect class="cls-2" x="21.88" y="88.1" width="6.75" height="6.75" transform="translate(-67.79 110.14) rotate(-85.91)"/>
      <rect class="cls-3" x="22.36" y="81.37" width="6.75" height="6.75" transform="translate(-60.63 104.37) rotate(-85.91)"/>
      <rect x="22.84" y="74.63" width="6.75" height="6.75" transform="translate(-53.46 98.59) rotate(-85.91)"/>
      <rect x="23.32" y="67.9" width="6.75" height="6.75" transform="translate(-46.3 92.82) rotate(-85.91)"/>
      <rect class="cls-3" x="23.8" y="61.16" width="6.75" height="6.75" transform="translate(-39.14 87.05) rotate(-85.91)"/>
      <rect x="24.6" y="54.77" width="6.08" height="6.75" transform="translate(-32.33 81.56) rotate(-85.91)"/>
      <rect x="13.7" y="107.82" width="6.75" height="6.75" transform="translate(-95.05 120.29) rotate(-85.91)"/>
      <rect class="cls-3" x="14.18" y="101.08" width="6.75" height="6.75" transform="translate(-87.89 114.52) rotate(-85.91)"/>
      <rect class="cls-2" x="14.66" y="94.35" width="6.75" height="6.75" transform="translate(-80.73 108.75) rotate(-85.91)"/>
      <rect class="cls-2" x="15.14" y="87.62" width="6.75" height="6.75" transform="translate(-73.56 102.98) rotate(-85.91)"/>
      <rect x="15.62" y="80.88" width="6.75" height="6.75" transform="translate(-66.4 97.2) rotate(-85.91)"/>
      <rect x="17.07" y="60.68" width="6.75" height="6.75" transform="translate(-44.91 79.88) rotate(-85.91)"/>
      <rect x="7.45" y="100.6" width="6.75" height="6.75" transform="translate(-93.66 107.36) rotate(-85.91)"/>
      <rect class="cls-2" x="7.93" y="93.87" width="6.75" height="6.75" transform="translate(-86.5 101.59) rotate(-85.91)"/>
      <rect x="8.41" y="87.14" width="6.75" height="6.75" transform="translate(-79.34 95.81) rotate(-85.91)"/>
      <rect x=".23" y="106.86" width="6.75" height="6.75" transform="translate(-106.6 105.97) rotate(-85.91)"/>
      <rect x="1.19" y="93.39" width="6.75" height="6.75" transform="translate(-92.27 94.42) rotate(-85.91)"/>
    </g>
  </g>
</svg>